#!OML:ASF F:\VICON\USERDATA\INSTALL\rory3\rory3.ASF
:FULLY-SPECIFIED
:DEGREES
18
root 0.8532004857847533 17.721810862755937 -15.393888330229684 0.6113183735702541 -7.219714472190406 -8.965483122967475
lfemur -25.77368816269651 -5.691877617218306 -7.084758304812089
ltibia 12.623810470481157
lfoot -6.506939132682452 13.109880335571667
ltoes -0.467492432958148
rfemur 11.399383798238333 8.370176087144014 35.485685581140245
rtibia 23.550307312614457
rfoot -17.988289903091015 -5.057512377338886
rtoes -6.620394004244959
lowerback 8.691004969335857 2.9330265492502834 9.205021773455291
upperback -0.2961010824946338 4.959955254815561 2.3464130004333574
thorax -4.627068061223091 2.252445786276577 -3.285372793834648
lowerneck -16.812697477787427 -2.842611581485054 -1.278770204126722
upperneck 21.77109099264765 -3.6821302754967338 0.25725344875684575
head 9.702821473988417 -1.783680136979231 -0.18316458535171357
lclavicle -1.9532406450981722e-15 9.067692723530645e-16
lhumerus -38.73858630070016 6.998758103680249 81.50190922320465
lradius 21.81500737377341
lwrist 2.181877801554387
lhand -26.959001185364382 19.65451035906941
lfingers 7.12502
lthumb -0.38045118546129103 49.633910334165165
rclavicle -1.9532406450981722e-15 9.067692723530645e-16
rhumerus -21.923517347229797 -8.062566419416376 -82.99508682301622
rradius 29.725085087254566
rwrist 1.1132425232620928
rhand -18.3558928462036 25.061889232939414
rfingers 7.12502
rthumb 7.92684715323144 -4.769470660704259
19
root 0.9375104698111061 17.818605433684287 -14.527988716893104 0.022008424447381714 -7.2347544258143035 -7.496886733514476
lfemur -24.746088857474536 -3.71945517898686 -10.409513518293856
ltibia 15.30130899622429
lfoot 0.23016691159080604 5.892660538807225
ltoes -1.708382635593522
rfemur 12.902182781693742 7.801058114359773 33.329588753352105
rtibia 26.20290580675723
rfoot -14.400793648676537 -2.7755366280298945
rtoes -10.65697757961516
lowerback 8.540246855089347 2.9138266637801085 7.867064839450532
upperback -0.20208064196019188 4.766205999680808 2.1079354099589587
thorax -4.547449874083488 2.1937262746363877 -2.767044933570514
lowerneck -16.94959562751141 -2.8543511694818737 -1.4385578115415902
upperneck 22.056087608310786 -3.615011714522046 0.09139802747715031
head 9.828907516377091 -1.783740133640304 -0.2104246855617428
lclavicle -1.9532406683098537e-15 9.067691698370563e-16
lhumerus -39.17258561642481 8.868084557357797 80.7498134767226
lradius 20.294110612158274
lwrist 1.1092113278760438
lhand -27.20779988368733 18.48601356273374
lfingers 7.12502
lthumb -0.6207718835770943 48.46481353897279
rclavicle -1.9532406683098537e-15 9.067691698370563e-16
rhumerus -22.889614665593175 -9.356964269179368 -82.56978827452367
rradius 29.250086535557877
rwrist 1.5441814525240787
rhand -19.79068051460789 23.016497377356664
rfingers 7.12502
rthumb 6.541909487886906 -6.862472300716443
20
root 0.9908761937594666 17.918499830747738 -13.649489109183074 -1.037329615179502 -5.646659322748793 -4.494634114558265
lfemur -22.277190526740355 -3.7424850906960083 -14.944306989731466
ltibia 16.290208451726564
lfoot 3.032019602933592 0.12930668666174516
ltoes -3.0354207134481928
rfemur 11.890783465838844 6.226153724217706 29.764293998882003
rtibia 32.99190195270277
rfoot -7.956000377470873 -1.7821084785123595
rtoes -9.703399097331491
lowerback 8.386508778117612 2.6323183430139583 4.809441846146558
upperback -0.31018469910425933 4.050038752971878 1.373542830101535
thorax -4.793894262686292 1.8981187331521456 -1.7586790962573415
lowerneck -16.252005055944924 -3.0290950368110257 -1.45551755759426
upperneck 22.235285480334767 -3.8949857118655067 0.19302229251415648
head 9.76651947462414 -1.9058433383668243 -0.19979703635473708
lclavicle -1.953240616762468e-15 9.067692386692542e-16
lhumerus -39.319885384181084 10.017582376631207 79.69281945460912
lradius 18.120415240521236
lwrist -0.6389309252193502
lhand -27.039500764202796 18.007514874632243
lfingers 7.12502
lthumb -0.4582557639722059 47.986814849295314
rclavicle -1.953240616762468e-15 9.067692386692542e-16
rhumerus -24.533710102008907 -12.342309309962666 -81.76359102600568
rradius 27.66969135429171
rwrist 2.5871188611760525
rhand -20.067978131313016 22.673998741130454
rfingers 7.12502
rthumb 6.274181872346501 -7.21312090013559
21
root 0.9467660787395071 17.881490313856037 -0.08175775147290842 -2.1230876673719177 -5.636417524776629 -2.948115317661554
lfemur -20.62501986237347 -3.0376553727806126 -19.38962163361824
ltibia 23.478697994155926
lfoot -3.34602234881381 -2.784350291485752
ltoes -2.994754947732349
rfemur 6.093373357862323 4.490748806080782 26.289085453927754
rtibia 48.50043264115693
rfoot 6.690623351413974 3.554640066153489
rtoes 2.9090033897777268
lowerback 9.215832177270789 2.9113136453047623 3.434061997768379
upperback -0.019056971717364868 4.255719404222836 0.5947380162979892
thorax -5.022699204771118 2.03334461369442 -1.7250662009190538
lowerneck -16.472413994086608 -3.225851031479282 -1.402049511302513
upperneck 21.83615540497866 -4.209890897089709 0.6695504715603038
head 9.711063354623041 -2.00896332155816 -0.09139043411785516
lclavicle -2.3445411340011674e-15 5.46915594722135e-16
lhumerus -38.8109613086422 8.926978689610904 80.65005532257902
lradius 17.83999657469196
lwrist 0.0758782042443853
lhand -24.946592729095116 23.005093930408673
lfingers 7.12502
lthumb 1.5632362572616347 52.983238395384035
rclavicle -2.3445411340011674e-15 5.46915594722135e-16
rhumerus -25.245707427051347 -14.180842385759352 -80.95813219707748
rradius 27.798513128908052
rwrist 2.430035627316716
rhand -18.38500120803688 22.475570976619792
rfingers 7.12502
rthumb 7.898650307309545 -7.353173442144648
22
root 0.9677121402410815 17.95270866864614 -2.193709223959905 -2.7914913663400096 -5.857160139705775 -1.4001210101065502
lfemur -18.851368849813934 -2.5615722471835976 -21.956928737192463
ltibia 25.730039969552664
lfoot -5.048197311040334 -1.8765525129411467
ltoes -0.35558362124488996
rfemur 0.7031460640471607 3.222045422508497 23.828125924945706
rtibia 61.525257847749955
rfoot 14.255027923978673 2.382303079736502
rtoes 9.777875130009399
lowerback 9.706416137390184 2.964657081373716 2.100580655576263
upperback 0.06725505427190565 4.169116183855234 0.18461395462673202
thorax -5.229072084885131 2.015889521749724 -1.3749397460636672
lowerneck -16.524713921306862 -3.18829576137208 -1.3743796460677769
upperneck 21.8126141980569 -4.1732961176937176 0.7249683251035648
head 9.716104833066295 -1.9866908941793167 -0.07832188352270156
lclavicle -2.131516340151603e-15 7.429961235779953e-16
lhumerus -38.61982343681654 8.609332184911525 81.07023693247854
lradius 18.160991979088234
lwrist 0.9997774642021362
lhand -25.130313911829916 23.224014740939666
lfingers 7.12502
lthumb 1.3858179330442373 53.20229881244779
rclavicle -2.131516340151603e-15 7.429961235779953e-16
rhumerus -25.657102351799317 -14.66187017213235 -80.96978335330833
rradius 27.256651222737865
rwrist 3.4419677917324845
rhand -17.934800130013713 21.80289593795108
rfingers 7.12502
rthumb 8.33311255568483 -8.008423320219013
23
root 0.9848857075660875 18.007094560317405 -2.667663516489961 -3.1891606089106723 -5.809626066848338 -0.03690181182636243
lfemur -15.239877756736625 -2.4214896596260096 -23.611693918113954
ltibia 26.46648319726545
lfoot -7.497782359167288 0.611876289220203
ltoes 1.4495377115325643
rfemur -5.214559419564251 2.56205290407388 22.171781074084677
rtibia 69.58184953483385
rfoot 14.047848656748645 -0.30091409161223925
rtoes 12.594902505052056
lowerback 10.065413092891523 2.744347629208518 0.9373150433257769
upperback 0.2691284429644263 3.7385169516622536 0.02653131370302808
thorax -5.25314480228329 1.82668051391313 -0.7262444094994699
lowerneck -16.434531795010493 -3.0444644654228044 -1.356983550444603
upperneck 21.88621946447956 -3.952548677536746 0.6378256515806564
head 9.72188070293403 -1.9007170744467439 -0.06790163419728329
lclavicle -1.4460715090909965e-15 1.374031800840434e-15
lhumerus -36.98021048550959 7.816168364971739 81.52010788942053
lradius 19.116776119517656
lwrist 2.332386415850684
lhand -25.784494433045193 23.201453581287943
lfingers 7.12502
lthumb 0.7539777192041264 53.17798872902825
rclavicle -1.4460715090909965e-15 1.374031800840434e-15
rhumerus -25.923187798836153 -15.254180846502289 -80.735372415136
rradius 26.41477137314881
rwrist 4.887199910780433
rhand -17.49197382513169 21.63836280589103
rfingers 7.12502
rthumb 8.760469086709698 -8.157856019067975
24
root 0.9890639742271368 18.051523364701666 -4.703165156738926 -3.501934843437577 -5.49741208121217 0.8900424343116717
lfemur -12.434048646269193 -2.3466492969907478 -25.05303492551814
ltibia 27.359339130097034
lfoot -9.242808055873546 1.587313738299286
ltoes 1.4752451108599556
rfemur -11.457597183289911 1.6264605746782328 20.970871066732066
rtibia 75.98242059246866
rfoot 9.612776866203685 -2.367055785910376
rtoes 12.257395076236778
lowerback 10.407504681196857 2.3135541410277645 -0.028694759637822198
upperback 0.3968364086053085 3.0605527599126297 0.0277502621060588
thorax -5.3374218718050415 1.5139449390222484 -0.11871220743678512
lowerneck -16.284568570945634 -2.9006565101664896 -1.320213861785188
upperneck 22.090854707213637 -3.72212259177212 0.427101720486135
head 9.766462527863363 -1.8168326582223802 -0.09704170475610857
lclavicle -1.2564586165419692e-15 1.5485408384941903e-15
lhumerus -35.58497957783652 6.432175186387846 82.14249478031024
lradius 19.941593260786306
lwrist 3.0740563799427316
lhand -26.09051661875385 23.366116500164175
lfingers 7.12502
lthumb 0.45841864917883135 53.344707131310045
rclavicle -1.2564586165419692e-15 1.5485408384941903e-15
rhumerus -26.275174939953036 -16.12288321974794 -80.49284970565536
rradius 25.54809132071411
rwrist 5.828455442199371
rhand -17.02296361021181 21.469191674048744
rfingers 7.12502
rthumb 9.213073341165522 -8.307966781572368
